<?xml version="1.0" standalone="no"?>
<!DOCTYPE svg PUBLIC "-//W3C//DTD SVG 20010904//EN"
 "http://www.w3.org/TR/2001/REC-SVG-20010904/DTD/svg10.dtd">
<svg version="1.0" xmlns="http://www.w3.org/2000/svg"
 width="180.000000pt" height="180.000000pt" viewBox="0 0 180.000000 180.000000"
 preserveAspectRatio="xMidYMid meet">

<g transform="translate(0.000000,180.000000) scale(0.100000,-0.100000)"
fill="#000000" stroke="none">
<path d="M1503 1600 c-3 -11 -9 -20 -14 -20 -5 0 -9 -7 -9 -15 0 -8 -4 -15 -9
-15 -5 0 -24 -29 -42 -65 -30 -56 -38 -65 -62 -65 -17 0 -30 7 -34 18 -4 9
-16 27 -28 39 -20 23 -21 23 -394 24 -414 1 -381 7 -423 -71 -14 -25 -40 -70
-58 -100 -18 -30 -46 -80 -63 -110 -17 -30 -38 -67 -49 -82 -10 -14 -18 -29
-18 -33 0 -4 -9 -20 -20 -35 -11 -16 -33 -52 -49 -82 -15 -29 -38 -70 -49 -91
-27 -47 -27 -49 1 -95 13 -20 32 -50 42 -66 l18 -30 23 30 c28 35 29 43 7 82
-16 28 -16 31 15 93 18 35 44 84 58 109 15 25 35 60 45 78 11 17 28 48 39 67
11 19 30 52 42 73 11 20 34 62 50 92 48 89 63 101 127 98 78 -4 85 -21 42
-101 -19 -34 -37 -64 -40 -67 -7 -6 -12 -15 -62 -110 -18 -36 -36 -67 -39 -70
-3 -3 -15 -23 -27 -45 -52 -98 -58 -108 -185 -312 -23 -38 -58 -99 -78 -138
-43 -82 -79 -146 -90 -160 -4 -5 -17 -27 -29 -48 -12 -20 -30 -52 -40 -71 -33
-57 -31 -96 3 -96 27 0 68 43 103 108 78 144 99 172 128 172 15 0 31 -11 44
-29 32 -44 32 -44 -41 -168 -64 -111 -79 -145 -76 -170 3 -31 30 -42 51 -21 7
7 37 48 66 91 29 43 59 81 68 84 10 4 27 -7 49 -31 18 -20 46 -40 61 -44 28
-8 246 -9 551 -4 l164 2 26 29 c15 15 36 46 48 67 24 46 51 91 88 154 15 25
29 53 33 62 3 10 9 18 14 18 5 0 9 4 9 10 0 5 27 55 60 110 33 55 60 104 60
108 0 4 9 18 20 32 28 35 24 76 -13 146 -30 56 -57 74 -57 38 0 -8 -4 -14 -10
-14 -5 0 -10 -13 -10 -29 0 -17 5 -33 10 -36 17 -11 11 -61 -12 -107 -13 -23
-26 -44 -30 -46 -5 -2 -8 -8 -8 -14 0 -5 -13 -28 -28 -51 -15 -23 -39 -64 -52
-92 -13 -27 -36 -68 -50 -90 -14 -22 -32 -53 -40 -70 -8 -16 -31 -55 -52 -86
-32 -49 -42 -57 -76 -61 -54 -8 -92 1 -93 21 -2 32 3 54 21 86 10 18 24 43 32
56 7 13 15 26 18 29 4 4 18 29 64 115 6 11 13 22 16 25 3 3 16 25 29 50 14 25
27 47 30 50 3 3 16 23 28 45 46 86 66 120 102 174 20 31 43 70 51 86 8 17 17
32 20 35 3 3 16 25 29 50 40 77 77 143 101 185 58 100 99 187 93 200 -3 8 -18
15 -33 15 -21 0 -30 -7 -40 -30 -7 -16 -15 -30 -19 -30 -3 0 -12 -15 -20 -32
-8 -18 -27 -52 -43 -75 -15 -23 -28 -45 -28 -50 0 -11 -59 -83 -68 -83 -4 0
-19 10 -34 23 -40 35 -44 68 -16 124 29 57 51 96 59 103 3 3 20 35 39 72 27
56 31 70 20 83 -18 22 -51 19 -57 -5z m-234 -224 c36 -50 49 -118 26 -134 -6
-4 -16 -18 -23 -31 -8 -13 -22 -39 -33 -57 -10 -19 -28 -51 -40 -71 -12 -21
-25 -43 -30 -49 -5 -7 -20 -32 -32 -57 -13 -25 -45 -79 -73 -121 -68 -106
-104 -101 -118 14 -3 25 -9 63 -13 85 l-8 40 -21 -30 c-23 -34 -45 -91 -37
-98 2 -3 9 -34 14 -69 8 -58 13 -94 40 -268 18 -114 22 -231 10 -243 -17 -17
-327 -12 -349 5 -24 20 -72 100 -72 120 0 9 14 41 31 70 30 49 46 78 81 139 7
13 15 26 18 29 6 6 26 40 60 105 15 28 45 81 68 119 23 37 42 70 42 73 0 2 13
23 29 46 56 83 73 119 65 146 -3 14 -10 67 -14 116 -5 50 -11 102 -15 118 -14
54 0 58 188 55 l171 -3 35 -49z m-461 -131 c15 -32 16 -145 2 -145 -5 0 -10
-5 -10 -11 0 -6 -13 -29 -28 -52 -15 -23 -34 -55 -42 -72 -8 -16 -22 -41 -31
-55 -9 -14 -26 -42 -38 -62 -66 -117 -104 -182 -111 -188 -3 -3 -17 -27 -30
-53 -32 -61 -53 -81 -79 -72 -22 7 -51 57 -51 87 0 18 48 116 70 143 4 6 17
27 29 48 12 20 30 52 40 71 11 18 25 44 33 57 7 13 15 26 18 29 3 3 15 25 28
50 13 25 51 91 85 148 66 110 92 128 115 77z m602 -107 c31 -51 29 -58 -32
-172 -13 -22 -25 -43 -29 -46 -3 -3 -13 -22 -22 -42 -10 -20 -23 -43 -30 -50
-13 -15 -31 -44 -61 -103 -12 -22 -23 -42 -26 -45 -5 -5 -21 -34 -82 -151 -16
-31 -40 -69 -53 -85 -32 -40 -54 -25 -73 51 l-15 60 34 65 c18 36 36 67 39 70
4 3 17 25 31 50 13 25 26 47 29 50 3 3 11 15 18 28 6 12 18 32 25 45 6 12 14
24 17 27 3 3 14 23 26 45 11 22 31 57 42 78 12 20 31 54 43 75 49 87 87 103
119 50z"/>
</g>
</svg>
