<?xml version="1.0" encoding="UTF-8"?>
<svg version="1.1" xmlns="http://www.w3.org/2000/svg" width="322" height="322">
<path d="M0 0 C1.08448929 0.00090637 1.08448929 0.00090637 2.19088745 0.00183105 C14.22301325 0.02899273 26.07436253 0.51372632 38 2.1875 C38.93005859 2.31640625 39.86011719 2.4453125 40.81835938 2.578125 C66.37701012 6.23661974 91.15684106 12.61338221 114.9375 22.6875 C115.77756592 23.04303955 116.61763184 23.3985791 117.4831543 23.76489258 C123.86484598 26.53918629 129.93688662 29.77767485 136 33.1875 C137.01091278 95.87446081 126.63957562 158.25121162 89 210.1875 C88.26394531 211.21488281 87.52789062 212.24226562 86.76953125 213.30078125 C75.24513424 229.02699381 62.10342497 244.78111521 47 257.1875 C46.10796875 257.96738281 45.2159375 258.74726563 44.296875 259.55078125 C32.78162733 269.59481161 20.48604375 278.86771119 7.625 287.125 C6.64789063 287.75277344 5.67078125 288.38054687 4.6640625 289.02734375 C1.3898089 290.45322838 0.32507017 290.45371863 -3 289.1875 C-5.54802878 287.73251766 -7.92451509 286.07736635 -10.3125 284.375 C-11.00746582 283.88725098 -11.70243164 283.39950195 -12.41845703 282.89697266 C-14.62217055 281.34044822 -16.81317594 279.76765361 -19 278.1875 C-19.70785645 277.67622559 -20.41571289 277.16495117 -21.14501953 276.63818359 C-28.69956831 271.1476236 -36.01834552 265.54553136 -42.86328125 259.17578125 C-44.76184661 257.40910891 -46.7045279 255.73259377 -48.6875 254.0625 C-59.03810433 245.01624012 -68.6057059 235.06725548 -77 224.1875 C-77.78503906 223.2078125 -78.57007813 222.228125 -79.37890625 221.21875 C-122.55357914 166.96121683 -135.44704689 101.02858431 -135 33.1875 C-94.81210991 9.88741206 -46.11132136 -0.07177583 0 0 Z M-109 49.1875 C-110.6943113 110.77354371 -89.8365978 171.24060494 -48.1328125 216.83203125 C-46.30504283 218.85061204 -44.55653806 220.90978353 -42.8125 223 C-30.48430842 237.08936181 -15.17394259 248.37993681 0 259.1875 C7.82360999 255.52839559 13.98676692 250.15848984 20.42724609 244.53369141 C22.62200428 242.65509832 24.90849587 240.89989262 27.1875 239.125 C39.28907821 229.26248031 50.65736752 217.69995422 60 205.1875 C60.47179687 204.57036133 60.94359375 203.95322266 61.4296875 203.31738281 C89.97051905 165.88416532 105.13066083 122.77601803 110 76.1875 C110.13148438 74.99769531 110.26296875 73.80789062 110.3984375 72.58203125 C111.12769455 65.12192871 111.09971754 57.67739509 111 50.1875 C43.73601912 13.81998545 -40.56317762 21.60459821 -109 49.1875 Z " fill="#E8A92A" transform="translate(160,19.8125)"/>
<path d="M0 0 C0.680625 -0.01417969 1.36125 -0.02835937 2.0625 -0.04296875 C4 0.1875 4 0.1875 7 2.1875 C6.6152877 7.6269044 3.40630457 11.1745964 0.25 15.375 C-0.94284707 16.9946895 -2.1355515 18.61448406 -3.328125 20.234375 C-3.93978516 21.05873047 -4.55144531 21.88308594 -5.18164062 22.73242188 C-7.98039471 26.51119082 -10.74357934 30.31528552 -13.5 34.125 C-14.29966187 35.22787354 -14.29966187 35.22787354 -15.11547852 36.35302734 C-19.07260178 41.83596781 -22.89557823 47.40192309 -26.6875 53 C-30.35589119 58.41488097 -34.08324785 63.73197938 -38.125 68.875 C-42.20253453 74.07533389 -45.96932647 79.42561797 -49.68188477 84.89086914 C-54.77862135 92.37600475 -60.10773649 99.68844843 -65.42773438 107.015625 C-67.90456729 110.43703892 -70.35993815 113.87366396 -72.8125 117.3125 C-73.23926025 117.91078613 -73.66602051 118.50907227 -74.10571289 119.12548828 C-75.07088537 120.47919988 -76.0355133 121.83329971 -77 123.1875 C-79.86263798 122.8488397 -80.90676286 122.28430873 -82.9375 120.17578125 C-83.618125 119.29277344 -84.29875 118.40976563 -85 117.5 C-85.78632813 116.50355469 -86.57265625 115.50710937 -87.3828125 114.48046875 C-87.8046582 113.94470215 -88.22650391 113.40893555 -88.66113281 112.85693359 C-90.99423856 109.94778387 -93.43734571 107.134077 -95.875 104.3125 C-96.90394431 103.11744443 -97.93258928 101.92213106 -98.9609375 100.7265625 C-99.46850586 100.13649414 -99.97607422 99.54642578 -100.49902344 98.93847656 C-103.30092484 95.66989542 -106.07423007 92.37718685 -108.85058594 89.08691406 C-112.25294688 85.05928076 -115.68591635 81.0587871 -119.125 77.0625 C-123.50417064 71.97032676 -127.80019642 66.81988422 -132.01953125 61.59375 C-133.81011616 59.41820699 -135.66793364 57.33446462 -137.5625 55.25 C-140 52.1875 -140 52.1875 -140 48.1875 C-126.02047233 40.20790033 -126.02047233 40.20790033 -118 41.1875 C-108.93435708 44.15727958 -104.25993837 49.93487867 -98.5 57.14453125 C-95.43137954 60.87961772 -92.18609965 64.41716096 -88.90039062 67.96020508 C-85.50228695 71.62673955 -82.21705228 75.36181621 -79 79.1875 C-73.02722251 74.35844586 -68.06223067 68.94973558 -63 63.1875 C-61.52327015 61.53947987 -60.0441169 59.89362792 -58.5625 58.25 C-57.82386719 57.42886719 -57.08523437 56.60773438 -56.32421875 55.76171875 C-53.8495733 53.02089295 -51.36290535 50.2912918 -48.875 47.5625 C-46.07242619 44.48440434 -43.29032125 41.3944813 -40.5625 38.25 C-37.17730563 34.35503518 -33.68914728 30.55727339 -30.1965332 26.7590332 C-23.87382084 19.88095479 -17.61726133 12.94756807 -11.5078125 5.87890625 C-7.92329941 1.85793691 -5.57532479 0.05279664 0 0 Z " fill="#E8AA2C" transform="translate(235,87.8125)"/>
<path d="M0 0 C-1.65863505 4.32504836 -4.871041 7.09418825 -8.125 10.25 C-8.68832031 10.80429688 -9.25164062 11.35859375 -9.83203125 11.9296875 C-11.21686028 13.29104485 -12.60783204 14.64614859 -14 16 C-14.66 15.67 -15.32 15.34 -16 15 C-13.7169864 12.49197571 -11.4222145 9.99501771 -9.125 7.5 C-8.47402344 6.78457031 -7.82304687 6.06914063 -7.15234375 5.33203125 C-6.52714844 4.65527344 -5.90195313 3.97851562 -5.2578125 3.28125 C-4.6817627 2.65283203 -4.10571289 2.02441406 -3.51220703 1.37695312 C-2 0 -2 0 0 0 Z " fill="#EDBC58" transform="translate(230,89)"/>
<path d="M0 0 C0.66 0 1.32 0 2 0 C1.67 0.99 1.34 1.98 1 3 C0.84970012 5.06362991 0.75155552 7.13123915 0.68359375 9.19921875 C0.64169922 10.40771484 0.59980469 11.61621094 0.55664062 12.86132812 C0.51732422 14.12396484 0.47800781 15.38660156 0.4375 16.6875 C0.39431641 17.96173828 0.35113281 19.23597656 0.30664062 20.54882812 C0.2004514 23.69910852 0.09840467 26.84946839 0 30 C-0.33 30 -0.66 30 -1 30 C-1.02465746 25.8882744 -1.04283959 21.77657722 -1.05493164 17.66479492 C-1.0599708 16.26504772 -1.06680216 14.8653058 -1.07543945 13.46557617 C-1.0875232 11.45754223 -1.09269807 9.44947043 -1.09765625 7.44140625 C-1.10289307 6.23170166 -1.10812988 5.02199707 -1.11352539 3.77563477 C-1 1 -1 1 0 0 Z " fill="#EFC36A" transform="translate(26,52)"/>
</svg>
