<?xml version="1.0" encoding="UTF-8"?>
<svg version="1.1" xmlns="http://www.w3.org/2000/svg" width="1749" height="302">
<path d="M0 0 C1.08448929 0.00090637 1.08448929 0.00090637 2.19088745 0.00183105 C14.22301325 0.02899273 26.07436253 0.51372632 38 2.1875 C38.93005859 2.31640625 39.86011719 2.4453125 40.81835938 2.578125 C66.37701012 6.23661974 91.15684106 12.61338221 114.9375 22.6875 C115.77756592 23.04303955 116.61763184 23.3985791 117.4831543 23.76489258 C123.86484598 26.53918629 129.93688662 29.77767485 136 33.1875 C137.01091278 95.87446081 126.63957562 158.25121162 89 210.1875 C88.26394531 211.21488281 87.52789062 212.24226562 86.76953125 213.30078125 C75.24513424 229.02699381 62.10342497 244.78111521 47 257.1875 C46.10796875 257.96738281 45.2159375 258.74726563 44.296875 259.55078125 C32.78162733 269.59481161 20.48604375 278.86771119 7.625 287.125 C6.64789063 287.75277344 5.67078125 288.38054687 4.6640625 289.02734375 C1.3898089 290.45322838 0.32507017 290.45371863 -3 289.1875 C-5.54802878 287.73251766 -7.92451509 286.07736635 -10.3125 284.375 C-11.00746582 283.88725098 -11.70243164 283.39950195 -12.41845703 282.89697266 C-14.62217055 281.34044822 -16.81317594 279.76765361 -19 278.1875 C-19.70785645 277.67622559 -20.41571289 277.16495117 -21.14501953 276.63818359 C-28.69956831 271.1476236 -36.01834552 265.54553136 -42.86328125 259.17578125 C-44.76184661 257.40910891 -46.7045279 255.73259377 -48.6875 254.0625 C-59.03810433 245.01624012 -68.6057059 235.06725548 -77 224.1875 C-77.78503906 223.2078125 -78.57007813 222.228125 -79.37890625 221.21875 C-122.55357914 166.96121683 -135.44704689 101.02858431 -135 33.1875 C-94.81210991 9.88741206 -46.11132136 -0.07177583 0 0 Z M-109 49.1875 C-110.6943113 110.77354371 -89.8365978 171.24060494 -48.1328125 216.83203125 C-46.30504283 218.85061204 -44.55653806 220.90978353 -42.8125 223 C-30.48430842 237.08936181 -15.17394259 248.37993681 0 259.1875 C7.82360999 255.52839559 13.98676692 250.15848984 20.42724609 244.53369141 C22.62200428 242.65509832 24.90849587 240.89989262 27.1875 239.125 C39.28907821 229.26248031 50.65736752 217.69995422 60 205.1875 C60.47179687 204.57036133 60.94359375 203.95322266 61.4296875 203.31738281 C89.97051905 165.88416532 105.13066083 122.77601803 110 76.1875 C110.13148438 74.99769531 110.26296875 73.80789062 110.3984375 72.58203125 C111.12769455 65.12192871 111.09971754 57.67739509 111 50.1875 C43.73601912 13.81998545 -40.56317762 21.60459821 -109 49.1875 Z " fill="#E8A724" transform="translate(147,5.8125)"/>
<path d="M0 0 C1.51393752 -0.00390134 3.02787397 -0.00823888 4.54180908 -0.01298523 C7.69848189 -0.02039524 10.85504276 -0.02019512 14.01171875 -0.01489258 C18.00971632 -0.00911425 22.00724813 -0.02601482 26.00516891 -0.04923725 C29.1283424 -0.06414208 32.25140813 -0.06482371 35.3746109 -0.06172752 C36.84625416 -0.06223269 38.31790481 -0.06731443 39.78951263 -0.07753944 C59.41222888 -0.19715815 77.24966176 3.00429127 92.01464844 16.96850586 C103.62476059 28.6043041 107.35618687 41.51634839 109.078125 57.30078125 C99.178125 57.30078125 89.278125 57.30078125 79.078125 57.30078125 C78.088125 54.33078125 77.098125 51.36078125 76.078125 48.30078125 C72.75004624 41.49334743 68.03095032 36.44242825 61.078125 33.30078125 C53.09694131 31.04164023 45.36316166 30.99065333 37.11328125 31 C35.67036315 30.99610354 34.22744618 30.99176694 32.78453064 30.98701477 C29.77306383 30.97959145 26.76171435 30.97981564 23.75024414 30.98510742 C19.91634958 30.9909008 16.08293833 30.97395561 12.24912357 30.95076275 C9.27287552 30.93593842 6.29674162 30.93516538 3.32046318 30.93827248 C1.90805542 30.93776375 0.4956405 30.93261165 -0.91673088 30.92246056 C-12.37185382 30.85020859 -22.87375613 31.51242106 -31.51171875 39.83203125 C-37.53028856 46.30677628 -39.55767256 52.75630494 -39.265625 61.56640625 C-38.2949574 69.28762582 -33.97348443 76.43657883 -27.921875 81.30078125 C-20.09859399 86.28943028 -11.68722589 85.87085287 -2.75 85.83984375 C-1.17973474 85.84977278 0.39051889 85.86172231 1.96075439 85.87557983 C6.07882665 85.90779995 10.19663349 85.91831875 14.31481934 85.92242432 C20.88936535 85.93120571 27.46369454 85.96721417 34.03806305 86.01459885 C36.31165573 86.02699829 38.58496259 86.02644187 40.85858154 86.02432251 C60.87245777 86.08007663 77.44894575 89.6633164 92.515625 103.546875 C103.32968501 114.6714739 108.84747081 129.10695323 109.265625 144.55078125 C108.94609327 161.54405945 102.65751051 175.30957169 90.98828125 187.48046875 C75.68885607 202.14357064 56.85443891 203.45117947 36.78515625 203.46875 C35.42673205 203.47197599 34.06830818 203.47534098 32.70988464 203.47883606 C29.87681271 203.48478155 27.04377107 203.48668078 24.21069336 203.48608398 C21.33953537 203.48600284 18.46853733 203.49293301 15.59741211 203.5065918 C-34.8589282 203.74277346 -34.8589282 203.74277346 -54.671875 184.98828125 C-65.21757374 173.97760461 -69.921875 160.37959879 -69.921875 145.30078125 C-60.021875 145.30078125 -50.121875 145.30078125 -39.921875 145.30078125 C-38.601875 149.59078125 -37.281875 153.88078125 -35.921875 158.30078125 C-30.46015008 165.79908156 -25.31384172 170.08184806 -16.13989258 171.83129883 C-10.15418698 172.65167988 -4.0913428 172.46353114 1.9375 172.46875 C3.29119908 172.47197021 4.64489781 172.47533483 5.99859619 172.47883606 C8.82947596 172.48480256 11.66032533 172.48667858 14.49121094 172.48608398 C18.08954792 172.48598265 21.68768633 172.49961669 25.28597641 172.51685619 C28.0812466 172.52806629 30.87647021 172.53000043 33.67176056 172.52947426 C35.63403288 172.5312029 37.59629067 172.54198682 39.55853271 172.55302429 C50.86271275 172.52446705 61.35969207 172.25592725 70.078125 164.30078125 C75.76133783 157.70288825 78.44951723 151.11718489 78.015625 142.42578125 C76.9341735 134.3459712 73.40214895 127.46383207 66.8984375 122.48046875 C59.6100576 117.75709808 52.18008291 117.18236485 43.69677734 117.15893555 C42.64392044 117.15372391 42.64392044 117.15372391 41.5697937 117.14840698 C40.05682527 117.1411001 38.54384648 117.13572798 37.03086472 117.13211632 C34.62389482 117.12487923 32.21712049 117.10915838 29.81021118 117.09077454 C22.97034445 117.03865437 16.13058826 116.99041311 9.29052734 116.97485352 C5.09359455 116.96468546 0.89716182 116.93514355 -3.29957199 116.89353371 C-4.88529019 116.88134591 -6.47107937 116.87607971 -8.0568428 116.87833214 C-25.70471115 116.89722644 -40.90393344 112.64985059 -53.796875 99.98828125 C-65.88772129 87.21895581 -70.50578611 72.21099173 -70.1953125 54.859375 C-69.50910862 38.76755427 -62.25352514 25.6330003 -50.75 14.7109375 C-35.86812408 2.02845484 -18.90048703 -0.02060279 0 0 Z " fill="#E4A925" transform="translate(1625.921875,49.69921875)"/>
<path d="M0 0 C10.36332538 -0.04551922 20.72658236 -0.08206852 31.08998585 -0.10362434 C35.90418581 -0.11397965 40.71831275 -0.1279843 45.5324707 -0.15087891 C50.19445685 -0.17290639 54.85637358 -0.18463031 59.51840782 -0.18975449 C61.28063738 -0.19339743 63.04286396 -0.20050747 64.80506325 -0.21146011 C73.98651449 -0.26615942 83.05458205 -0.05637322 92.1940918 0.87939453 C92.95124135 0.95605787 93.7083909 1.03272121 94.48848438 1.11170769 C113.12924469 3.22853513 130.51267158 11.1980175 145 23 C145.82757812 23.66386719 146.65515625 24.32773438 147.5078125 25.01171875 C166.24596388 40.90096623 178.62117269 64.05906362 181.71484375 88.41796875 C184.06929422 117.99373693 177.23021612 144.88885591 158 168 C157.50371094 168.64195312 157.00742188 169.28390625 156.49609375 169.9453125 C143.58118072 185.93520483 123.73644729 196.31036936 104 201 C102.98940269 201.26018166 102.98940269 201.26018166 101.95838928 201.52561951 C91.95775464 203.73394345 81.7626142 203.25008341 71.58203125 203.1953125 C69.74654258 203.19236653 67.91105222 203.19032951 66.07556152 203.18920898 C59.32118181 203.17878578 52.56683823 203.15086334 45.8125 203.125 C30.694375 203.08375 15.57625 203.0425 0 203 C0 150.53 0 98.06 0 44 C9.9 44 19.8 44 30 44 C30 86.57 30 129.14 30 173 C84.8414802 175.39355963 84.8414802 175.39355963 129.625 152.5625 C130.40875 151.716875 131.1925 150.87125 132 150 C132.51949219 149.49726563 133.03898437 148.99453125 133.57421875 148.4765625 C146.45077698 135.22383515 151.46425086 116.07876157 151.26953125 98.09375 C150.36215802 79.35626927 141.04484545 61.73535766 127.76953125 48.83203125 C122.96835678 44.67423024 117.74438314 41.58431638 112.125 38.6875 C111.50165771 38.36177002 110.87831543 38.03604004 110.23608398 37.70043945 C97.50470921 31.46211449 84.55212745 31.53150671 70.703125 31.48828125 C68.65760234 31.47140891 66.61208988 31.45325528 64.56658936 31.43388367 C59.22053213 31.38665497 53.87451631 31.35667081 48.52832031 31.33044434 C43.05785958 31.30050102 37.58754113 31.25401843 32.1171875 31.20898438 C21.41151695 31.12326026 10.7058604 31.05730985 0 31 C0 20.77 0 10.54 0 0 Z " fill="#E4A925" transform="translate(1158,50)"/>
<path d="M0 0 C9.9 0 19.8 0 30 0 C30 11.55 30 23.1 30 35 C72.9 35 115.8 35 160 35 C160 44.9 160 54.8 160 65 C117.1 65 74.2 65 30 65 C30 86.12 30 107.24 30 129 C79.17 129 128.34 129 179 129 C179 138.9 179 148.8 179 159 C119.93 159 60.86 159 0 159 C0 106.53 0 54.06 0 0 Z " fill="#E4A925" transform="translate(524,94)"/>
<path d="M0 0 C4.32596774 3.63281115 8.47784774 7.35346988 12.47337341 11.3531189 C12.97754777 11.85643883 13.48172214 12.35975877 14.00117451 12.87833083 C15.66779257 14.54331904 17.33084228 16.21182377 18.99389648 17.88037109 C20.19666918 19.08342623 21.39966284 20.28626048 22.6028595 21.4888916 C25.85251764 24.73826398 29.0990931 27.99070043 32.34510684 31.2437129 C35.74390322 34.64877963 39.14555006 38.05099637 42.54689026 41.45352173 C48.98020586 47.88993981 55.41096905 54.32890175 61.84080988 60.76879084 C70.53467334 69.47594421 79.23249299 78.17914374 87.93008709 86.88257027 C101.62328564 100.58515899 115.31120719 114.2930067 129 128 C129.495 64.64 129.495 64.64 130 0 C139.9 0 149.8 0 160 0 C160 66.66 160 133.32 160 202 C155.3343357 198.00085917 150.78776309 193.99343936 146.3497467 189.75935364 C145.71898222 189.15978291 145.08821773 188.56021218 144.43833917 187.94247264 C142.34355115 185.94931622 140.25174671 183.95306588 138.16040039 181.95629883 C137.42398064 181.2541412 136.68756088 180.55198357 135.92882538 179.82854843 C121.37933871 165.9509745 106.95649646 151.94438265 92.57891178 137.88896656 C83.43815812 128.95826003 74.2614266 120.07192835 64.98413086 111.28295898 C56.86618232 103.59215045 48.82957807 95.82599333 40.87734979 87.9638254 C36.6769533 83.8161114 32.4490003 79.71273235 28.12101936 75.69797707 C-1.1618705 48.45645069 -1.1618705 48.45645069 -2.19153053 28.07818311 C-2.34977048 18.6396754 -1.46463118 9.31440789 0 0 Z " fill="#E4A925" transform="translate(1368,50)"/>
<path d="M0 0 C4.32596774 3.63281115 8.47784774 7.35346988 12.47337341 11.3531189 C12.97754777 11.85643883 13.48172214 12.35975877 14.00117451 12.87833083 C15.66779257 14.54331904 17.33084228 16.21182377 18.99389648 17.88037109 C20.19666918 19.08342623 21.39966284 20.28626048 22.6028595 21.4888916 C25.85251764 24.73826398 29.0990931 27.99070043 32.34510684 31.2437129 C35.74390322 34.64877963 39.14555006 38.05099637 42.54689026 41.45352173 C48.98020586 47.88993981 55.41096905 54.32890175 61.84080988 60.76879084 C70.53467334 69.47594421 79.23249299 78.17914374 87.93008709 86.88257027 C101.62328564 100.58515899 115.31120719 114.2930067 129 128 C129.495 64.64 129.495 64.64 130 0 C139.9 0 149.8 0 160 0 C160 66.66 160 133.32 160 202 C155.3343357 198.00085917 150.78776309 193.99343936 146.3497467 189.75935364 C145.71898222 189.15978291 145.08821773 188.56021218 144.43833917 187.94247264 C142.34355115 185.94931622 140.25174671 183.95306588 138.16040039 181.95629883 C137.42398064 181.2541412 136.68756088 180.55198357 135.92882538 179.82854843 C121.37933871 165.9509745 106.95649646 151.94438265 92.57891178 137.88896656 C83.43815812 128.95826003 74.2614266 120.07192835 64.98413086 111.28295898 C56.86618232 103.59215045 48.82957807 95.82599333 40.87734979 87.9638254 C36.6769533 83.8161114 32.4490003 79.71273235 28.12101936 75.69797707 C-1.1618705 48.45645069 -1.1618705 48.45645069 -2.19153053 28.07818311 C-2.34977048 18.6396754 -1.46463118 9.31440789 0 0 Z " fill="#E4A925" transform="translate(333,50)"/>
<path d="M0 0 C31.51677736 -2.6651901 31.51677736 -2.6651901 39.80273438 1.36230469 C44.01774677 4.95887509 46.3598479 9.57327561 48.71875 14.51513672 C50.9452075 18.83314061 53.98245874 22.53683837 56.9375 26.375 C58.11500619 27.96946829 59.28817558 29.56714821 60.45703125 31.16796875 C64.00803247 36.01149127 67.56424279 40.85114491 71.125 45.6875 C71.69742432 46.46504639 72.26984863 47.24259277 72.85961914 48.04370117 C78.52626386 55.73098494 84.25481058 63.37131441 90 71 C97.08102794 62.44559047 103.59185433 53.48133587 110.14892578 44.52441406 C111.9469775 42.07230976 113.7513332 39.62501045 115.55859375 37.1796875 C122.00890802 28.45115807 128.41761781 19.69567646 134.73852539 10.87280273 C135.23989014 10.17485596 135.74125488 9.47690918 136.2578125 8.7578125 C136.90967529 7.84733154 136.90967529 7.84733154 137.57470703 6.91845703 C138.04505371 6.28536621 138.51540039 5.65227539 139 5 C139.81235107 3.66134888 139.81235107 3.66134888 140.64111328 2.2956543 C143.45295517 -0.44081324 145.24281297 -0.56844696 149.09442139 -0.56648254 C149.88310608 -0.54067612 150.67179077 -0.51486969 151.484375 -0.48828125 C152.70776581 -0.47766914 152.70776581 -0.47766914 153.95587158 -0.46684265 C156.55485681 -0.43890544 159.15166872 -0.37617281 161.75 -0.3125 C163.51429175 -0.28741605 165.27861735 -0.26460304 167.04296875 -0.24414062 C171.36281356 -0.18908154 175.68103863 -0.10281735 180 0 C178.72992898 3.49383881 177.27269147 6.2470968 175.015625 9.1953125 C174.41741943 9.98365479 173.81921387 10.77199707 173.20288086 11.58422852 C172.55843018 12.42268311 171.91397949 13.2611377 171.25 14.125 C169.88078271 15.92783297 168.51231026 17.73123184 167.14453125 19.53515625 C166.10353271 20.90438232 166.10353271 20.90438232 165.04150391 22.30126953 C161.97010509 26.3614516 158.95089237 30.45917545 155.9375 34.5625 C155.07850098 35.73063232 155.07850098 35.73063232 154.20214844 36.92236328 C153.04577529 38.49506977 151.8896871 40.06798582 150.73388672 41.64111328 C147.8262837 45.59679624 144.91282248 49.54815986 142 53.5 C140.83721738 55.07810864 139.67445698 56.65623365 138.51171875 58.234375 C136.13978949 61.45346916 133.76733593 64.67217606 131.39453125 67.890625 C124.24909241 77.58357655 117.11555574 87.28508819 110 97 C111.65765078 100.65917593 113.90416727 103.82326031 116.25 107.0625 C116.68473633 107.66682861 117.11947266 108.27115723 117.56738281 108.89379883 C123.04686521 116.48775048 128.61877223 124.0144034 134.18554688 131.54443359 C137.12794685 135.52649212 140.0637044 139.51343938 143 143.5 C144.16663334 145.08335789 145.33330004 146.6666912 146.5 148.25 C153.5 157.75 153.5 157.75 155.25170898 160.12744141 C156.41252343 161.70275139 157.57349223 163.27794765 158.73461914 164.85302734 C161.74213315 168.93317488 164.74653234 173.01556415 167.74609375 177.1015625 C168.36419922 177.94267578 168.98230469 178.78378906 169.61914062 179.65039062 C170.78682124 181.23948981 171.9535689 182.82927521 173.11914062 184.41992188 C176.53263011 189.06275931 180.04602257 193.59278672 183.69946289 198.05029297 C185 200 185 200 185 203 C153.55849035 205.98648396 153.55849035 205.98648396 145.09912109 201.44140625 C140.60154427 197.30931418 137.99350995 192.13411733 135.37939453 186.68115234 C133.09670193 182.24424435 130.03939847 178.43864829 127 174.5 C125.82943332 172.91954778 124.66276063 171.33620404 123.5 169.75 C122.9225 168.96625 122.345 168.1825 121.75 167.375 C110.66666667 152.33333333 99.58333333 137.29166667 88.5 122.25 C87.92241943 121.46616943 87.34483887 120.68233887 86.74975586 119.87475586 C85.58379194 118.29231815 84.41793896 116.70979869 83.25219727 115.12719727 C80.32568557 111.15448113 77.39722466 107.18323006 74.46484375 103.21484375 C68.72576358 95.44399909 63.01586072 87.65500166 57.375 79.8125 C52.84829464 73.52140061 48.2496836 67.2913639 43.58496094 61.10205078 C37.92837963 53.59257886 32.36418162 46.01560384 26.79541016 38.44091797 C24.3961633 35.17906455 21.99316534 31.91998464 19.58984375 28.66113281 C17.84354784 26.29211929 16.0994764 23.92147958 14.35546875 21.55078125 C12.13941963 18.54021467 9.91222698 15.53841033 7.67578125 12.54296875 C7.15975342 11.84848633 6.64372559 11.15400391 6.11206055 10.43847656 C5.14469456 9.13679677 4.17368876 7.83781141 3.19848633 6.54199219 C0 2.22546435 0 2.22546435 0 0 Z " fill="#E4A925" transform="translate(736,50)"/>
<path d="M0 0 C59.4 0 118.8 0 180 0 C180 9.9 180 19.8 180 30 C120.6 30 61.2 30 0 30 C0 20.1 0 10.2 0 0 Z " fill="#E4A925" transform="translate(950,51)"/>
<path d="M0 0 C59.07 0 118.14 0 179 0 C179 9.9 179 19.8 179 30 C119.93 30 60.86 30 0 30 C0 20.1 0 10.2 0 0 Z " fill="#E4A925" transform="translate(524,50)"/>
<path d="M0 0 C9.9 0 19.8 0 30 0 C30 52.47 30 104.94 30 159 C20.1 159 10.2 159 0 159 C0 106.53 0 54.06 0 0 Z " fill="#E4A925" transform="translate(1024,94)"/>
<path d="M0 0 C0.680625 -0.01417969 1.36125 -0.02835937 2.0625 -0.04296875 C4 0.1875 4 0.1875 7 2.1875 C6.6152877 7.6269044 3.40630457 11.1745964 0.25 15.375 C-0.94284707 16.9946895 -2.1355515 18.61448406 -3.328125 20.234375 C-3.93978516 21.05873047 -4.55144531 21.88308594 -5.18164062 22.73242188 C-7.98039471 26.51119082 -10.74357934 30.31528552 -13.5 34.125 C-14.29966187 35.22787354 -14.29966187 35.22787354 -15.11547852 36.35302734 C-19.07260178 41.83596781 -22.89557823 47.40192309 -26.6875 53 C-30.35589119 58.41488097 -34.08324785 63.73197938 -38.125 68.875 C-42.20253453 74.07533389 -45.96932647 79.42561797 -49.68188477 84.89086914 C-54.77862135 92.37600475 -60.10773649 99.68844843 -65.42773438 107.015625 C-67.90456729 110.43703892 -70.35993815 113.87366396 -72.8125 117.3125 C-73.23926025 117.91078613 -73.66602051 118.50907227 -74.10571289 119.12548828 C-75.07088537 120.47919988 -76.0355133 121.83329971 -77 123.1875 C-79.86263798 122.8488397 -80.90676286 122.28430873 -82.9375 120.17578125 C-83.618125 119.29277344 -84.29875 118.40976563 -85 117.5 C-85.78632813 116.50355469 -86.57265625 115.50710937 -87.3828125 114.48046875 C-87.8046582 113.94470215 -88.22650391 113.40893555 -88.66113281 112.85693359 C-90.99423856 109.94778387 -93.43734571 107.134077 -95.875 104.3125 C-96.90394431 103.11744443 -97.93258928 101.92213106 -98.9609375 100.7265625 C-99.46850586 100.13649414 -99.97607422 99.54642578 -100.49902344 98.93847656 C-103.30092484 95.66989542 -106.07423007 92.37718685 -108.85058594 89.08691406 C-112.25294688 85.05928076 -115.68591635 81.0587871 -119.125 77.0625 C-123.50417064 71.97032676 -127.80019642 66.81988422 -132.01953125 61.59375 C-133.81011616 59.41820699 -135.66793364 57.33446462 -137.5625 55.25 C-140 52.1875 -140 52.1875 -140 48.1875 C-126.02047233 40.20790033 -126.02047233 40.20790033 -118 41.1875 C-108.93435708 44.15727958 -104.25993837 49.93487867 -98.5 57.14453125 C-95.43137954 60.87961772 -92.18609965 64.41716096 -88.90039062 67.96020508 C-85.50228695 71.62673955 -82.21705228 75.36181621 -79 79.1875 C-73.02722251 74.35844586 -68.06223067 68.94973558 -63 63.1875 C-61.52327015 61.53947987 -60.0441169 59.89362792 -58.5625 58.25 C-57.82386719 57.42886719 -57.08523437 56.60773438 -56.32421875 55.76171875 C-53.8495733 53.02089295 -51.36290535 50.2912918 -48.875 47.5625 C-46.07242619 44.48440434 -43.29032125 41.3944813 -40.5625 38.25 C-37.17730563 34.35503518 -33.68914728 30.55727339 -30.1965332 26.7590332 C-23.87382084 19.88095479 -17.61726133 12.94756807 -11.5078125 5.87890625 C-7.92329941 1.85793691 -5.57532479 0.05279664 0 0 Z " fill="#E8A724" transform="translate(222,73.8125)"/>
<path d="M0 0 C12.11595379 6.0579769 24.33445806 15.34086023 30 28 C34.78623373 45.1398632 32.57257141 64.61355047 31.78527832 82.16778564 C31.51623064 88.81047664 31.39993473 95.45483221 31.26953125 102.1015625 C30.99306873 115.07570194 30.537097 128.03403351 30 141 C20.1 141 10.2 141 0 141 C0 94.47 0 47.94 0 0 Z " fill="#E4A925" transform="translate(1368,112)"/>
<path d="M0 0 C12.11595379 6.0579769 24.33445806 15.34086023 30 28 C34.78623373 45.1398632 32.57257141 64.61355047 31.78527832 82.16778564 C31.51623064 88.81047664 31.39993473 95.45483221 31.26953125 102.1015625 C30.99306873 115.07570194 30.537097 128.03403351 30 141 C20.1 141 10.2 141 0 141 C0 94.47 0 47.94 0 0 Z " fill="#E4A925" transform="translate(333,112)"/>
<path d="M0 0 C3.38609712 1.4124391 5.01823492 2.97957936 7.12890625 5.95703125 C7.68900391 6.74013672 8.24910156 7.52324219 8.82617188 8.33007812 C9.39916016 9.14927734 9.97214844 9.96847656 10.5625 10.8125 C11.4277832 12.02389648 11.4277832 12.02389648 12.31054688 13.25976562 C15.02986021 17.08938683 17.67180626 20.91530422 20 25 C2.4453125 48.82421875 2.4453125 48.82421875 0.71777344 51.16870117 C-0.43266155 52.73002916 -1.58305178 54.29139014 -2.73339844 55.8527832 C-5.72486274 59.91304659 -8.71718719 63.97267179 -11.7109375 68.03125 C-12.63132812 69.27938477 -12.63132812 69.27938477 -13.5703125 70.55273438 C-14.72366622 72.11675192 -15.87728575 73.6805735 -17.03125 75.24414062 C-17.56492187 75.96794922 -18.09859375 76.69175781 -18.6484375 77.4375 C-19.20241211 78.15768311 -19.75638672 78.87786621 -20.32714844 79.61987305 C-22.10049918 82.02508969 -22.10049918 82.02508969 -23.52441406 84.98364258 C-27.63278453 92.31117941 -27.63278453 92.31117941 -31.92449951 93.55999756 C-37.60712104 94.37530322 -43.29034903 94.00147156 -49 93.6875 C-50.7459396 93.63226105 -52.49204704 93.58208169 -54.23828125 93.53710938 C-58.49636191 93.4164813 -62.74632347 93.22710415 -67 93 C-65.76194596 89.6300666 -64.3872928 86.89233227 -62.234375 84.0234375 C-61.68136719 83.28029297 -61.12835937 82.53714844 -60.55859375 81.77148438 C-59.96175781 80.98064453 -59.36492188 80.18980469 -58.75 79.375 C-57.47381362 77.66417044 -56.19777606 75.95322986 -54.921875 74.2421875 C-54.26896484 73.37045898 -53.61605469 72.49873047 -52.94335938 71.60058594 C-49.94090893 67.58273391 -46.97119167 63.54098901 -44 59.5 C-42.83351127 57.91653557 -41.66684405 56.33320261 -40.5 54.75 C-39.9225 53.96625 -39.345 53.1825 -38.75 52.375 C-36.125 48.8125 -36.125 48.8125 -33.5 45.25 C-32.92209717 44.46568604 -32.34419434 43.68137207 -31.7487793 42.87329102 C-30.58624831 41.29560517 -29.42365103 39.71796817 -28.26098633 38.14038086 C-25.28048844 34.09604621 -22.30127242 30.05077703 -19.32421875 26.00390625 C-12.92321359 17.30512624 -6.50485193 8.62151009 0 0 Z " fill="#E4A925" transform="translate(798,160)"/>
</svg>
